<?xml version="1.0" standalone="no"?>
<!DOCTYPE svg PUBLIC "-//W3C//DTD SVG 20010904//EN"
 "http://www.w3.org/TR/2001/REC-SVG-20010904/DTD/svg10.dtd">
<svg version="1.0" xmlns="http://www.w3.org/2000/svg"
 width="500.000000pt" height="500.000000pt" viewBox="0 0 500.000000 500.000000"
 preserveAspectRatio="xMidYMid meet">

<g transform="translate(0.000000,500.000000) scale(0.100000,-0.100000)"
fill="#000000" stroke="none">
<path d="M2255 4983 c-381 -47 -732 -163 -1032 -341 -432 -256 -796 -665 -999
-1123 -100 -226 -179 -521 -205 -767 -17 -168 -7 -506 21 -661 173 -977 887
-1758 1833 -2006 208 -54 300 -66 547 -72 468 -11 772 53 1165 246 283 139
466 270 680 486 397 399 650 928 715 1495 16 136 8 510 -15 640 -24 142 -71
328 -117 459 -307 878 -1111 1520 -2048 1636 -113 14 -458 19 -545 8z m540
-460 c785 -108 1449 -684 1670 -1447 90 -313 105 -687 40 -993 -121 -571 -503
-1090 -1010 -1370 -302 -167 -587 -248 -920 -260 -250 -9 -450 20 -678 98
-553 188 -996 569 -1238 1064 -271 557 -275 1205 -10 1760 391 818 1242 1273
2146 1148z"/>
<path d="M3280 4156 c-82 -93 -604 -701 -1217 -1418 -16 -18 -458 -1988 -451
-2010 4 -12 740 838 1180 1363 167 199 143 144 233 534 209 906 367 1623 363
1641 -2 7 -50 -43 -108 -110z m-703 -1441 c85 -25 153 -117 153 -207 0 -89
-82 -201 -168 -229 -88 -29 -187 12 -249 104 -56 84 -56 175 0 249 65 85 158
114 264 83z"/>
</g>
</svg>
