<?xml version="1.0" standalone="no"?>
<!DOCTYPE svg PUBLIC "-//W3C//DTD SVG 20010904//EN"
 "http://www.w3.org/TR/2001/REC-SVG-20010904/DTD/svg10.dtd">
<svg version="1.0" xmlns="http://www.w3.org/2000/svg"
 width="512.000000pt" height="512.000000pt" viewBox="0 0 512.000000 512.000000"
 preserveAspectRatio="xMidYMid meet">

<g transform="translate(0.000000,512.000000) scale(0.100000,-0.100000)"
fill="#000000" stroke="none">
<path d="M2335 5104 c-911 -123 -1570 -907 -1532 -1824 12 -291 90 -590 214
-820 19 -36 345 -593 725 -1238 488 -828 699 -1178 720 -1193 61 -44 142 -34
194 23 38 41 1426 2369 1477 2477 344 728 204 1558 -355 2097 -385 372 -920
549 -1443 478z m399 -1044 c206 -52 385 -196 485 -389 65 -127 76 -175 75
-346 0 -136 -2 -157 -27 -230 -40 -119 -91 -199 -192 -301 -77 -77 -105 -98
-185 -137 -52 -26 -122 -54 -155 -62 -404 -102 -810 138 -921 546 -24 88 -25
280 -1 369 71 268 285 482 547 550 104 26 271 27 374 0z"/>
</g>
</svg>
