<?xml version="1.0" standalone="no"?>
<!DOCTYPE svg PUBLIC "-//W3C//DTD SVG 20010904//EN"
 "http://www.w3.org/TR/2001/REC-SVG-20010904/DTD/svg10.dtd">
<svg version="1.0" xmlns="http://www.w3.org/2000/svg"
 width="512.000000pt" height="512.000000pt" viewBox="0 0 512.000000 512.000000"
 preserveAspectRatio="xMidYMid meet">

<g transform="translate(0.000000,512.000000) scale(0.100000,-0.100000)"
fill="#000000" stroke="none">
<path d="M2315 5010 c-396 -44 -796 -189 -1120 -404 -597 -399 -980 -1005
-1092 -1726 -25 -164 -25 -538 1 -705 109 -718 496 -1328 1096 -1727 220 -146
474 -262 720 -327 720 -192 1478 -59 2085 364 340 237 624 569 804 939 120
245 191 473 233 741 25 168 31 511 9 665 -65 475 -249 906 -538 1265 -89 111
-280 300 -388 387 -334 266 -752 447 -1185 514 -123 18 -504 27 -625 14z m30
-1312 c49 -101 199 -221 368 -292 146 -62 308 -98 605 -132 l43 -5 -3 -277 -3
-277 -42 -88 c-48 -100 -86 -159 -154 -238 l-47 -55 150 -158 c83 -87 147
-161 142 -165 -5 -5 -115 -87 -245 -184 l-237 -175 -146 114 c-88 68 -152 112
-159 108 -7 -4 -72 -54 -144 -111 -73 -57 -137 -103 -143 -103 -7 0 -450 322
-489 356 -2 2 64 74 147 160 l150 157 -55 64 c-72 85 -119 161 -160 253 l-33
75 0 311 0 310 85 58 c106 72 217 175 287 266 29 39 55 70 58 70 3 0 14 -19
25 -42z"/>
</g>
</svg>
