<?xml version="1.0" standalone="no"?>
<!DOCTYPE svg PUBLIC "-//W3C//DTD SVG 20010904//EN"
 "http://www.w3.org/TR/2001/REC-SVG-20010904/DTD/svg10.dtd">
<svg version="1.0" xmlns="http://www.w3.org/2000/svg"
 width="1200.000000pt" height="1491.000000pt" viewBox="0 0 1200.000000 1491.000000"
 preserveAspectRatio="xMidYMid meet">

<g transform="translate(0.000000,1491.000000) scale(0.100000,-0.100000)"
fill="#000000" stroke="none">
<path d="M3870 8694 c-8 -1 -76 -13 -150 -24 -841 -134 -1488 -380 -1990 -758
-138 -104 -408 -370 -510 -502 -368 -480 -603 -1020 -865 -1995 -346 -1283
-428 -2109 -279 -2817 271 -1287 1368 -2073 3339 -2393 610 -99 1157 -145
1992 -167 827 -21 1725 15 2433 98 1593 187 2701 620 3367 1318 364 382 603
848 712 1392 112 563 105 1160 -25 2024 -128 855 -330 1490 -637 2005 -469
789 -1224 1314 -2321 1614 -154 42 -448 110 -571 131 l-70 12 -115 -82 c-264
-189 -583 -355 -859 -446 -129 -43 -344 -104 -365 -104 -9 0 -16 -3 -16 -8 0
-4 70 -77 155 -162 85 -85 155 -159 155 -165 0 -5 -304 -1128 -677 -2494 -497
-1822 -679 -2478 -685 -2460 -4 13 -203 1104 -443 2424 -239 1320 -438 2413
-441 2428 -6 27 9 44 192 228 109 109 196 200 193 202 -2 2 -53 16 -114 32
-429 109 -859 320 -1226 601 -96 74 -117 82 -179 68z"/>
</g>
</svg>
